<svg version="1.1" xmlns="http://www.w3.org/2000/svg" viewBox="0 0 635.8430575383925 386.2798803790856" width="1271.686115076785" height="772.5597607581713">
  <!-- svg-source:excalidraw -->
  
  <defs>
    <style>
      @font-face {
        font-family: "Virgil";
        src: url("https://excalidraw.com/Virgil.woff2");
      }
      @font-face {
        font-family: "Cascadia";
        src: url("https://excalidraw.com/Cascadia.woff2");
      }
    </style>
  </defs>
  <g transform="translate(23.56359662364025 10) rotate(0 206.5 10)"><text x="0" y="16" font-family="Cascadia, Segoe UI Emoji" font-size="16px" fill="#000000" text-anchor="start" style="white-space: pre;" direction="ltr">input: (0,4), (3, 0), (9, 9), (4, 8), (5, 9)</text></g><g><g transform="translate(14.663824733610454 92.75356644103204) rotate(0 0.2641549136882304 139.53549013209533)"><path d="M-0.48257764242589474 -0.10537754036486158 C-0.5340450014919043 46.580399650956196, -1.163386544212699 233.50145764214298, -1.0792509522289038 280.2772849585861 M1.4649303659610449 -1.2063046943955125 C1.83842135457322 45.08387327056999, 1.4322166511230172 231.68329969249046, 1.0660968342237176 278.3002848130651" stroke="#000000" stroke-width="1" fill="none"></path></g></g><g><g transform="translate(14.200235537571189 374.0180070207175) rotate(0 289.32872274009515 0.2509902575321803)"><path d="M-0.10537754036486158 -1.0792509522289038 C96.5803996509562 -0.9951153602451086, 483.5014576421429 -0.07148944996297359, 580.277284958586 0.02223590947687626 M-1.6198394783958794 0.9685383525118234 C94.91794944955659 1.3012128784880044, 482.5261040353154 1.6445553770288823, 579.4748140982166 1.5713350131735204" stroke="#000000" stroke-width="1" fill="none"></path></g></g><g transform="translate(10 222.9855595631791) rotate(0 6.6666666666667425 6.6666666666667425)"><path d="M0.8315305703998037 3.372864483634934 C0.8315305703998037 3.372864483634934, 0.8315305703998037 3.372864483634934, 0.8315305703998037 3.372864483634934 M0.8315305703998037 3.372864483634934 C0.8315305703998037 3.372864483634934, 0.8315305703998037 3.372864483634934, 0.8315305703998037 3.372864483634934 M1.3637345714939717 7.992241606449178 C4.262606358816228 6.953252091374862, 5.874724124230259 5.463431154405518, 8.64221499741732 -0.24029441955187436 M1.0996215485481504 8.992510988709917 C3.2162810137004425 5.725933534799293, 6.3452882139332765 3.876272753925959, 8.626795446618488 -0.5574310300374876 M5.2653140217834045 11.813534909968427 C6.141263933773132 9.99219135339284, 9.146318748984328 5.433190858509257, 11.737181669996794 2.7756060464429604 M3.7440638492652107 11.146457284239284 C5.7657994985328385 9.604463769117054, 7.871780956764711 7.507294547164051, 11.751530830526466 3.023933974293147 M8.014743262210041 13.811949945351339 C10.051985765591771 11.827066106360366, 10.896368925585536 9.606303249601593, 13.031172657699019 8.214613726835262 M7.960573539610133 13.485270325158021 C9.51907664050845 11.457261118911052, 10.70642730086996 10.30439047061703, 12.528452396380409 8.304879616254505 M3.620461374135875 12.601919569394084 C3.620461374135875 12.601919569394084, 3.620461374135875 12.601919569394084, 3.620461374135875 12.601919569394084 M3.620461374135875 12.601919569394084 C3.620461374135875 12.601919569394084, 3.620461374135875 12.601919569394084, 3.620461374135875 12.601919569394084 M8.591132978331894 12.250182173650291 C8.324174547434058 10.347561495591544, 6.606703482546872 9.521799000883895, 3.853065496972996 7.635492733817603 M9.449469393846243 12.207295466836122 C7.112481383423112 10.338867254540144, 5.7765694311009215 8.800695969185506, 3.2040881245501818 7.248748512145188 M12.198444195518018 10.589379232295533 C8.231336857905998 6.722672229453197, 5.840577272869113 3.7251213788918505, 2.3120913390408284 0.6718748839140122 M13.38384583048311 10.31170063224875 C9.14987802916248 6.606941336565828, 5.6235643048749075 3.7134580886120876, 2.637512238823158 1.064128276755679 M14.639482747670383 5.901114063894525 C13.03575399189486 3.5078195073488896, 9.755636537008833 1.973441249029996, 4.409451380368365 -1.5819621185595865 M14.735269567463668 6.026692305503562 C11.929552867475 3.8274188377950504, 9.48136586460194 2.461862355762283, 5.523163468573285 -1.5857523788521761" stroke="#15aabf" stroke-width="0.5" fill="none"></path><path d="M8.122137067102512 -0.35081289118809345 C9.402240882068622 -0.1524946583214204, 10.468982929072178 0.472192680559546, 11.203838340195539 1.8200227295816251 C11.9386937513189 3.167852778603704, 12.394116243446938 6.132622536370375, 12.531269533842678 7.736167402944382 C12.66842282423842 9.339712269518389, 12.837510934931327 10.50003395113789, 12.026758082569984 11.441291929025667 C11.21600523020864 12.382549906913443, 9.005208070735216 13.135865369700142, 7.666752419674614 13.38371527027104 C6.328296768614011 13.631565170841938, 5.083256093490126 13.591999597609892, 3.996024176206366 12.92839133245106 C2.908792258922606 12.264783067292228, 1.6834564372905017 10.980066907676562, 1.143360915972055 9.40206567931805 C0.6032653946536084 7.824064450959536, 0.3953543093763332 4.880228213049959, 0.7554510482956864 3.4603839622999835 C1.1155477872150397 2.040539711550008, 1.7592893063295898 1.2132187264815604, 3.3039413494881744 0.8830001748181981 C4.848593392646759 0.5527816231548359, 8.803774169675515 1.3270447520331081, 10.023363307247195 1.47907265231981 C11.242952444818874 1.631100552606512, 10.876456364061491 1.73902551856116, 10.621476174918254 1.79516757653841 M7.047229101344562 1.405778302668323 C8.524009032047719 1.5555125402602294, 10.54672067617255 1.4641320014421528, 11.3932777052472 2.566718145349162 C12.239834734321851 3.669304289256171, 11.95482831362453 6.478655216681073, 12.126571275792468 8.021295166110377 C12.298314237960406 9.563935115539682, 13.363708514434627 10.755022877864143, 12.423735478254828 11.822557841924988 C11.48376244207503 12.890092805985834, 7.8728491475180435 14.231095798081373, 6.48673305871367 14.426504950475445 C5.100616969909296 14.621914102869518, 5.3215467112641255 14.104734419751578, 4.1070389454285845 12.995012756289418 C2.8925311795930435 11.885291092827257, -0.06713827832771546 9.389671516854289, -0.8003135362995764 7.768174969702487 C-1.5334887942714372 6.146678422550686, -0.8154384878321098 4.328485414333963, -0.29201260240258087 3.2660334733786085 C0.23141328302694808 2.2035815324232537, 0.8841710790696125 2.1375945221393864, 2.3402417762775976 1.3934633239703604 C3.7963124734855827 0.6493321258013344, 7.497462353396599 -0.7807369141863996, 8.44441158084533 -1.1987537156355481 C9.39136080829406 -1.6167705170846967, 8.110723975561001 -1.2418478199146288, 8.021937140969982 -1.1146374847245308" stroke="#000000" stroke-width="1" fill="none"></path></g><g transform="translate(121.42857142857156 362.27127384889354) rotate(0 6.6666666666667425 6.6666666666667425)"><path d="M4.993404514958353 -0.9593516519902812 C4.993404514958353 -0.9593516519902812, 4.993404514958353 -0.9593516519902812, 4.993404514958353 -0.9593516519902812 M4.993404514958353 -0.9593516519902812 C4.993404514958353 -0.9593516519902812, 4.993404514958353 -0.9593516519902812, 4.993404514958353 -0.9593516519902812 M1.169322370399242 9.471978546420436 C4.454705552644457 6.637181058252558, 7.3290117282245735 2.9674673363699138, 9.141285714577682 0.33348759289545904 M2.0862359708049203 8.008383728910562 C3.9612257476355244 6.033543070419037, 7.130339802053394 2.886727030985568, 8.850577154965869 0.24060657110711525 M4.0022383674898245 11.999918450228348 C8.082110323694023 9.095523295651144, 9.19114225270252 5.3128115224784445, 12.551140685109868 1.722418534231078 M3.279570939616586 12.320507581112384 C5.853344655423237 10.394754462292621, 7.824812750843787 7.438577337405782, 12.82016260694757 3.2796075619633163 M7.964290916981118 15.138085345644981 C10.559816591422447 10.772830627613164, 12.774194860779474 9.34138361245016, 14.686931560659069 6.343518533050178 M7.4509372281059045 14.742169650225446 C9.527260162733949 11.27321982691298, 12.988401378418654 8.39724622082591, 14.828777958317879 5.910979921468629 M2.2519584547759672 11.127695919603813 C2.2519584547759672 11.127695919603813, 2.2519584547759672 11.127695919603813, 2.2519584547759672 11.127695919603813 M2.2519584547759672 11.127695919603813 C2.2519584547759672 11.127695919603813, 2.2519584547759672 11.127695919603813, 2.2519584547759672 11.127695919603813 M10.983526527446228 13.889036626385106 C7.7168820651139285 11.418611738779548, 6.236937360250604 10.819344445731675, 2.2021990216986698 4.9201494435764666 M10.913835628873203 12.939671607844112 C6.871601680406247 10.615116512101798, 3.2960448079202327 6.943971750331452, 1.5737396614809942 5.3583723761591875 M12.865838298232827 8.570220246671626 C10.365326370564702 8.034865244619077, 8.564369876739717 5.167485366922527, 2.374269951573402 2.3657014072162568 M12.60799388390367 9.662496163968855 C8.662853077007588 7.026719427914341, 5.628448310209293 3.0655064679950286, 2.7385052449263783 0.5675468487420589 M15.116729983867442 7.042385591108563 C12.176378710595152 3.8054122491102715, 10.28756877530412 2.035595952102952, 5.727606953522713 -2.4242694215950964 M15.2527730789439 6.378628026748287 C12.303784746855968 3.8128997513501117, 10.173189046243097 1.8305203514931525, 5.723500838205741 -1.7305618871570974" stroke="#15aabf" stroke-width="0.5" fill="none"></path><path d="M4.717066353782758 -0.641460961664329 C5.997697198922723 -1.1370066933330665, 7.445328761167077 -0.9083141143770858, 8.915745358452158 -0.030301659986919027 C10.38616195573724 0.8477107944032477, 12.819374881010758 3.139789363428367, 13.539565937493247 4.626613764676671 C14.259756993975737 6.1134381659249755, 13.771596822779488 7.449866987029466, 13.236891697347094 8.890644747502906 C12.7021865719147 10.331422507976345, 11.461438141330582 12.39805687633821, 10.33133518489888 13.271280327517307 C9.201232228467177 14.144503778696404, 7.755065378569066 14.4457225054425, 6.456273958756882 14.129985454577493 C5.1574825389446985 13.814248403712487, 3.711792089351653 12.633479532755704, 2.5385866660257745 11.37685802232726 C1.3653812426998961 10.120236511898817, -0.41848063918801015 7.909806780344473, -0.5829585811983877 6.5902563920068316 C-0.7474365232087653 5.27070600366919, 0.20669056055976132 4.455231546007577, 1.5517190139635089 3.4595556923014117 C2.8967474673672564 2.463879838595246, 6.334582187993682 1.2253319989551903, 7.487212139224097 0.6162012697698387 C8.639842090454511 0.007070540584487084, 8.511492321483818 -0.2568392835714162, 8.467498721345995 -0.19522868281069794 M5.6998384659695915 0.0940393406813893 C6.9646396896100695 -0.5407996620751164, 7.83816911639254 -1.4426495397530794, 9.204294768517238 -0.8070768921714375 C10.570420420641936 -0.17150424458979574, 13.06623170988106 2.710843487117624, 13.89659237871778 3.9074752261712398 C14.7269530475545 5.104106965224855, 14.473738495387867 4.949190885950271, 14.186458781537556 6.3727135421502545 C13.899179067687246 7.796236198350238, 13.340922173569 11.495107408875361, 12.17291409561592 12.44861116337114 C11.004906017662838 13.40211491786692, 9.022193685290286 12.314963716565675, 7.178410313819076 12.093736069124926 C5.334626942347865 11.872508421684177, 2.4929409682468213 11.981481669197642, 1.1102138667886514 11.121245278726645 C-0.27251323466951827 10.261008888255649, -1.1553780761040497 8.108088234835986, -1.1179522949299416 6.9323177262989475 C-1.0805265137558335 5.756547217761909, 0.6325587634006896 5.100511216134762, 1.3347685538332996 4.066622227504417 C2.0369783442659095 3.032733238874072, 2.8021776274194834 1.268725119868757, 3.0953064476657186 0.7289837945168776 C3.388435267911954 0.18924246916499798, 3.037898809508968 0.8209108348633894, 3.0935414753107118 0.8281742753931391" stroke="#000000" stroke-width="1" fill="none"></path></g><g transform="translate(170.714285714286 120.12841670603643) rotate(0 6.6666666666667425 6.6666666666667425)"><path d="M5.439080734722522 -0.5719312247892194 C5.439080734722522 -0.5719312247892194, 5.439080734722522 -0.5719312247892194, 5.439080734722522 -0.5719312247892194 M5.439080734722522 -0.5719312247892194 C5.439080734722522 -0.5719312247892194, 5.439080734722522 -0.5719312247892194, 5.439080734722522 -0.5719312247892194 M1.4192313510734738 11.139196825304463 C4.68355276019773 7.004057546624014, 6.022985586657227 4.8340859236553655, 9.23826551368353 0.7760844033149443 M0.7805738756243288 10.50419941963388 C3.9937879093942312 7.420322325105533, 5.11958068411635 5.459253365429835, 9.391207973527584 1.0615635355872475 M5.536488779181903 12.95215742956583 C6.962464185448698 8.82731222343174, 11.021513924870328 4.404633434469246, 12.086721186371035 3.079411103198688 M4.1944256825040185 13.124417691405085 C5.9952611098287 10.49288569197247, 8.511024342534117 9.26517104879608, 13.158278849239908 2.5393554465327517 M8.350188115601373 14.13237613500863 C10.216400227358147 13.015755858118688, 12.405724601005591 9.782166610141878, 15.87984293850906 7.519254921016126 M7.403654519225416 14.709145471181943 C10.476786063872458 12.249227650342561, 12.561449055237842 9.389057448608163, 14.808523285554944 7.0482871728603085 M0.595907320624911 9.984258651662081 C0.595907320624911 9.984258651662081, 0.595907320624911 9.984258651662081, 0.595907320624911 9.984258651662081 M0.595907320624911 9.984258651662081 C0.595907320624911 9.984258651662081, 0.595907320624911 9.984258651662081, 0.595907320624911 9.984258651662081 M8.922133566877386 12.760208440989402 C7.440932928126411 12.147694122820765, 7.111780384864816 9.59131788778438, 1.8750166235179349 4.539290390134716 M9.661693573995075 13.261312018938508 C6.633785837895144 10.051339565256537, 4.171524922630335 7.8452887233811905, 0.5450277317003057 4.645493461348974 M13.194723907102803 10.918041633584906 C11.556395184844977 8.112793810784895, 8.581596635149596 7.978556080535723, 4.584649224231218 3.0941674970409156 M13.045527761652107 11.070904583021436 C10.810871915681483 7.781886843202342, 7.331497244148286 4.833303990324884, 2.9659571162203453 2.40742170418075 M12.860180885039917 4.661695425304487 C10.628507671762785 2.6325765244918724, 9.178583314327994 1.0363344080348336, 6.102262768788224 -1.5028151157316447 M13.52065070436587 5.200344108416601 C11.539382463334288 3.3311633834414702, 8.775059682409744 1.1660202513245128, 6.530258812369739 -0.705795392394501" stroke="#15aabf" stroke-width="0.5" fill="none"></path><path d="M5.6281153553211345 -0.789390680196874 C7.187323642001657 -0.6988090186284525, 10.211454570158832 0.8801137599101381, 11.509028259403554 1.9318700076658653 C12.806601948648275 2.9836262554215924, 13.226305440406719 4.042516184837316, 13.413557490789469 5.521146806337489 C13.600809541172218 6.999777427837662, 13.23392358548786 9.43736818430386, 12.63254056170005 10.803653736666904 C12.031157537912241 12.169939289029948, 11.015962010953752 13.317035066958432, 9.80525934806261 13.71886012051575 C8.594556685171467 14.120685174073067, 6.935290134841725 13.864918744252229, 5.368324584353201 13.214604058010803 C3.801359033864677 12.564289371769377, 1.2593082587324185 10.925168548839997, 0.40346604513146467 9.816972003067189 C-0.45237616846948914 8.708775457294381, -0.23812662525545275 7.818310341523577, 0.23327130274747798 6.5654247833739605 C0.7046692307504088 5.312539225224344, 2.000371117990211 3.462459614989421, 3.231853613149049 2.2996586541694892 C4.463336108307887 1.136857693349557, 6.829784447317641 -0.107852392589745, 7.622166273700508 -0.41138098154563263 C8.414548100083374 -0.7149095705015203, 8.230346471105879 0.2817259441468045, 7.986144571446251 0.4784871204341634 M5.452021249131626 -1.0393297863440027 C6.7793653351930825 -1.2748519672528351, 9.786208962068338 0.7049034302177429, 11.171473382817906 1.3176442607760706 C12.556737803567474 1.930385091334398, 13.250488710471247 1.3041936703483348, 13.763607773629033 2.637115197005963 C14.27672683678682 3.9700367236635916, 14.746817520817999 7.916587741383222, 14.250187761764627 9.315173420721841 C13.753558002711255 10.71375910006046, 12.399400106940748 10.477350720418958, 10.783829219308807 11.028629273037676 C9.168258331676865 11.579907825656395, 6.261226046139953 12.744614888086964, 4.5567624359729795 12.622844736434153 C2.852298825806006 12.501074584781342, 1.2407631902618879 11.11488915436203, 0.557047558306965 10.298008363120811 C-0.12666807364795785 9.481127571879592, 0.5353750895629509 8.94406426918136, 0.4544686442434429 7.721559988986836 C0.373562198923935 6.49905570879231, -0.495271729893218 4.172534134182254, 0.07160888638991736 2.962982681953659 C0.6384895026730527 1.753431229725064, 3.194708060411257 0.9517930663120584, 3.8557523419422552 0.4642512756152648 C4.516796623473253 -0.023290515081528795, 3.7923202177057744 -0.24262758824747283, 4.037874575575906 0.03773193777289752" stroke="#000000" stroke-width="1" fill="none"></path></g><g transform="translate(270.71428571428555 62.98555956317932) rotate(0 6.6666666666667425 6.6666666666667425)"><path d="M1.4618061820924657 3.9207547140483747 C1.4618061820924657 3.9207547140483747, 1.4618061820924657 3.9207547140483747, 1.4618061820924657 3.9207547140483747 M1.4618061820924657 3.9207547140483747 C1.4618061820924657 3.9207547140483747, 1.4618061820924657 3.9207547140483747, 1.4618061820924657 3.9207547140483747 M2.3460354348731465 8.970958015559862 C4.956019819751963 5.6416025964915075, 7.0389912718306595 3.279259441007352, 8.256899602160498 0.4941973332948335 M2.0817549261351354 8.886520723025004 C4.806201560714271 6.211123127943192, 7.132608858223868 4.027131286740449, 8.845747124318674 1.7529394305943797 M4.411133651588249 11.966821414541227 C5.9565184295809654 10.18806416495092, 7.948798973361015 6.582882604816634, 11.592662092152406 3.7650001149882324 M4.659461579438435 13.404226670909447 C7.12568545693275 9.490864097295322, 9.40475096589453 7.408933715000119, 12.461513943638076 4.112723179746116 M10.504468820428961 11.927915001845113 C12.278078702921935 11.043748867161817, 13.074681428688862 8.861552045453918, 16.176563779747124 4.982912400857309 M10.607629836908096 11.613341466149441 C11.679417150310584 10.497275168504176, 13.184768789004874 8.832137271361933, 15.955800981929535 6.141898948074082 M3.630582615080966 12.59027641356898 C3.630582615080966 12.59027641356898, 3.630582615080966 12.59027641356898, 3.630582615080966 12.59027641356898 M3.630582615080966 12.59027641356898 C3.630582615080966 12.59027641356898, 3.630582615080966 12.59027641356898, 3.630582615080966 12.59027641356898 M10.034885603370299 12.259080586205036 C8.017405555117922 10.188101524018462, 5.770906959641435 8.814156004990686, 1.9029748291392836 5.764888820830135 M9.599798353988831 12.562465693377689 C6.508354200363141 9.771672247100248, 3.9505218603126173 7.907529006282762, 2.0962742873617475 6.223036677376702 M11.391975030073812 10.202405067496086 C9.97965687680394 7.697077478173176, 6.355887237701913 4.0630539725655135, 3.562349403191824 1.3747367958731878 M11.700174124449408 8.68088967186407 C8.131921198844891 6.725991829244794, 5.499593124748878 3.4490222388331353, 3.7563456986644312 1.469915554086484 M15.367667994063654 6.426989992675681 C13.777071243245375 5.074225601278011, 12.749349590416573 4.011468399802342, 8.089884150069455 0.49384768866552686 M15.364825298844211 6.907249054978911 C13.929326310290712 5.72920106172915, 12.312925109837359 4.374871520109642, 8.855525303719812 1.1579755451119569" stroke="#15aabf" stroke-width="0.5" fill="none"></path><path d="M4.312308149081472 0.717686342032489 C5.430031672565269 0.19528925645898276, 7.307680457646057 0.7398057793016365, 8.748183948118786 1.27381923072668 C10.188687438591515 1.8078326821517234, 12.066881742709393 2.845000063359234, 12.95532909191785 3.92176705058275 C13.843776441126307 4.998534037806266, 14.471635704034524 6.5183927039452625, 14.078868043369525 7.7344211540677765 C13.686100382704526 8.95044960419029, 11.754739816385726 10.141672653627158, 10.598723127927856 11.217937751317834 C9.442706439469987 12.29420284900851, 8.3054618513035 13.964451028361893, 7.142767912622311 14.19201174021184 C5.980073973941122 14.419572452061786, 4.662027267145546 13.662489126590124, 3.622559495840722 12.583302022417516 C2.5830917245358984 11.504114918244909, 1.2667775465549074 9.15985242955134, 0.905961284793368 7.716889115176193 C0.5451450230318287 6.273925800801047, 0.9968856495742582 5.1271730173658865, 1.457661925271486 3.925522136166641 C1.9184382009687138 2.7238712549673956, 3.205998609945498 0.9412572902938501, 3.6706189389767343 0.5069838279807195 C4.135239268007971 0.07271036566758898, 4.124888122053714 1.20254657769765, 4.245383899458906 1.319881362287858 M5.011228627790858 -0.9109442053644665 C6.185535713281114 -1.503719094361493, 8.534971256934512 0.5206065966558464, 9.826124975300406 0.9712813614562963 C11.1172786936663 1.4219561262567462, 12.394894836289446 0.8188026513858886, 12.758150937986226 1.7931043834382332 C13.121407039683007 2.767406115490578, 12.466169834929083 5.342841879053704, 12.005661585481093 6.817091753770364 C11.545153336033103 8.291341628487025, 10.75179387944825 9.433263057799165, 9.995101441298289 10.638603631738198 C9.238409003148327 11.84394420567723, 8.902175716344377 13.769436624862943, 7.465506956581326 14.049135197404556 C6.028838196818274 14.32883376994617, 2.812379834581008 13.247059588844735, 1.3750888827199788 12.31679506698788 C-0.06220206914105009 11.386530545131023, -0.8536498053921298 9.956272583331419, -1.158238754584847 8.467548066263422 C-1.462827703777564 6.978823549195426, -1.3211103747985162 4.485505000755548, -0.4524448124363243 3.3844479645799024 C0.41622074992586755 2.2833909284042564, 3.1817329135573638 2.531011471424533, 4.053754619588304 1.8612058492095471 C4.925776325619244 1.1914002269945612, 4.761312805965026 -0.7478194391301671, 4.779685423749317 -0.6343857687100138" stroke="#000000" stroke-width="1" fill="none"></path></g><g transform="translate(559.2857142857142 223.69984527746487) rotate(0 6.6666666666667425 6.6666666666667425)"><path d="M4.344780694307101 -0.1981787437652942 C4.344780694307101 -0.1981787437652942, 4.344780694307101 -0.1981787437652942, 4.344780694307101 -0.1981787437652942 M4.344780694307101 -0.1981787437652942 C4.344780694307101 -0.1981787437652942, 4.344780694307101 -0.1981787437652942, 4.344780694307101 -0.1981787437652942 M1.2705377046023474 8.738897448331636 C5.1453582617728495 5.3417198576241995, 5.196481412858006 4.061923115715812, 9.8400508985294 -0.27079628997002825 M2.655154011631848 8.452654069355276 C4.641762741970401 5.12571530190543, 7.748361125792404 1.6563658111048658, 9.034730843351964 0.12482024005162429 M3.7006072767594063 12.867059386053727 C5.246140763438106 9.936969263625812, 8.186063671246687 9.631294645788794, 12.376550929001116 2.3819209735780635 M4.04833034151729 12.207118313850508 C6.28096976322476 10.153952404449933, 8.70940450054392 6.970325264345085, 12.091768964319073 4.07170380669978 M6.434062619535204 14.189460917840453 C10.325606132830682 11.893681725543493, 12.246007495508684 8.760433155204911, 14.027150833298682 7.169549703647673 M8.027669121958269 13.96893938151069 C9.73004788904387 11.96479715406054, 10.671729758231786 9.719152292266621, 14.30156653702189 6.189984126578375 M2.4723878428083896 10.874120915588254 C2.4723878428083896 10.874120915588254, 2.4723878428083896 10.874120915588254, 2.4723878428083896 10.874120915588254 M2.4723878428083896 10.874120915588254 C2.4723878428083896 10.874120915588254, 2.4723878428083896 10.874120915588254, 2.4723878428083896 10.874120915588254 M8.343917732989059 11.722618380529125 C6.155501939661689 8.99712629458922, 4.815559609967863 7.733872073159193, 1.4613051915518533 4.70342180505939 M8.802065589535625 11.277801739811217 C7.5050199458121 9.6448057586736, 5.747222334146671 8.965446252091025, 2.425462011385296 5.617271985165628 M13.013418823630905 11.299109115777892 C11.325165128220112 6.956248980878853, 6.980764024598019 3.3433925130876143, 1.8695084796659218 1.824126244141977 M13.134555424993282 9.483993479097617 C9.94165021313988 6.6524949829191025, 7.285692655599789 4.108616830755141, 3.1210456820576953 0.5764228974387755 M11.485024110012768 2.6180235572867763 C10.338457052225497 1.4236427963336187, 7.951507077245537 -0.2707475601328049, 6.338073724601137 -1.5833274120869283 M12.075359982409596 3.5209200245105396 C9.850521960126414 1.1628593434397467, 7.554883972754523 -0.8353192631743335, 5.760195311624276 -1.9522002181442621" stroke="#15aabf" stroke-width="0.5" fill="none"></path><path d="M9.104347535084253 -0.20884710791679417 C10.211583736653767 0.05613740012209978, 11.223945671058221 1.944752004494213, 12.058103378380341 3.4387733192223027 C12.892261085702462 4.932794633950392, 14.182910154361016 7.249452814571639, 14.109293779016975 8.755280780451743 C14.035677403672933 10.261108746331846, 12.914914908199572 11.591653318543871, 11.616405126316092 12.473741114502927 C10.317895344432612 13.355828910461982, 7.7960431519180275 14.274254381454531, 6.3182350877160935 14.047807556206074 C4.8404270235141595 13.821360730957617, 3.7671631410345228 12.216101848087979, 2.749556741104488 11.115060163012183 C1.7319503411744532 10.014018477936387, 0.3805699277956086 8.763491435941754, 0.21259668813588384 7.441557445751299 C0.044623448476159094 6.119623455560845, 1.0268378957095075 4.486864616489649, 1.7417173031461397 3.1834562218694584 C2.456596710582772 1.8800478272492673, 2.899883555159998 -0.10128690801180912, 4.5018731327556765 -0.3788929219698467 C6.103862710351355 -0.6564989359278843, 10.07451365046925 1.2287734697737411, 11.353654768720213 1.517820138121233 C12.632795886971177 1.806866806468725, 12.266084939377594 1.252131302050457, 12.176719842261456 1.3553870881151049 M7.119303970536338 -1.1276381214142441 C8.527892587079698 -0.6979512559520809, 9.685338802328577 1.7141758515835586, 10.841837315337589 2.791618078439238 C11.998335828346601 3.8690603052949175, 13.844002086215019 4.204672675591381, 14.05829504859041 5.337015239719832 C14.2725880109658 6.469357803848283, 13.109224758950047 8.467466447469349, 12.127595089589928 9.585673463209947 C11.145965420229809 10.703880478950545, 9.670531910961193 11.567375402532166, 8.168517032429698 12.046257334163418 C6.666502153898202 12.52513926579467, 4.185559722165652 12.856635164960045, 3.1155058184009565 12.45896505299746 C2.045451914636261 12.061294941034875, 2.4178513148657474 11.024109114944718, 1.7481936098415236 9.660236662387906 C1.0785359048172998 8.296364209831093, -1.3926364577335226 5.499198690388852, -0.9024404117443874 4.275730337656582 C-0.41224436575525214 3.0522619849243124, 3.0510093611188642 3.1896150605390363, 4.689369885776335 2.319426545994287 C6.327730410433806 1.449238031449538, 8.436882279659644 -0.8026987436127716, 8.927722736200437 -0.9454007496119141 C9.41856319274123 -1.0881027556110567, 7.840196292200036 1.3624529066144389, 7.634412625021097 1.4632145099994318" stroke="#000000" stroke-width="1" fill="none"></path></g><g><g transform="translate(22.135025195068692 224.42857142857133) rotate(0 123.30536361183704 -77.10751176583187)"><path d="M1.0708192851394414 0.7177129659801722 C42.05581212020702 -24.669335963665745, 205.5852732900176 -127.55396994471204, 246.436866543176 -153.07223721237065 M0.1738606804981826 0.048908327780663896 C41.01795346516407 -25.63447354172846, 204.95392289832418 -129.2387273774634, 245.86817601471614 -154.9327364976439" stroke="#000000" stroke-width="1" fill="none"></path></g></g><g><g transform="translate(19.27788233792603 229.42857142857133) rotate(0 53.19000832528934 67.56329861618576)"><path d="M-0.4889092180877924 -0.9368663158267736 C17.337326997571754 21.66864264346659, 88.7888089614787 113.58309382535518, 106.86892586866657 136.06346354819834 M1.4552747130766512 1.1856749230250716 C19.1072636531453 23.44094383414835, 88.0743147973024 112.24529487188907, 105.77706648608932 134.49920716222377" stroke="#000000" stroke-width="1" fill="none"></path></g></g><g><g transform="translate(132.84931090935447 365.85714285714266) rotate(0 216.91622310161858 -68.55447131076289)"><path d="M-0.08555984236299996 0.34084929563105115 C72.51613308338538 -22.23040809523135, 363.211387535841 -112.76463837231546, 435.42206369218025 -135.70637191369056 M-1.5896174889430403 -0.5258087695017457 C70.96994293401107 -23.415108542366028, 362.22374712320493 -114.79499672955869, 435.0706016669476 -137.44979191715686" stroke="#000000" stroke-width="1" fill="none"></path></g></g><g><g transform="translate(281.42073948078314 68.71428571428555) rotate(0 142.45146924086453 78.69743036284774)"><path d="M0.9006394531577826 1.1670433793216943 C47.98785514865248 27.103499651469658, 235.76072657425843 130.7705612670276, 282.7223918089377 156.66072351756912 M-0.08566356327384717 0.7341372081264854 C47.36181908354341 26.866600771353013, 237.4589891567915 129.39368272043947, 284.9886020450028 155.03502861551414" stroke="#000000" stroke-width="1" fill="none"></path></g></g><g><g transform="translate(559.277882337926 228.71428571428555) rotate(0 -184.3761927752596 -48.99288312722797)"><path d="M-0.5963461842387915 -0.6266593907028436 C-62.30947105833106 -16.86793288980567, -307.7242781866696 -81.38472968362984, -369.1611629026808 -97.63733245214185 M1.2914333396963777 1.6587404838390647 C-60.6666033821065 -14.952333854091847, -308.1706431036238 -83.20563597931307, -370.0438188902155 -99.64450673829501" stroke="#000000" stroke-width="1" fill="none"></path></g><g transform="translate(559.277882337926 228.71428571428555) rotate(0 -184.3761927752596 -48.99288312722797)"><path d="M-341.19426019210596 -101.9567030623866 C-351.53975068528393 -101.20880800648764, -364.1336135780809 -99.7683411519363, -371.35399678824996 -99.2418227593947 M-340.38160774484504 -102.41042133069911 C-351.1222184479644 -101.16433392438286, -364.31385009655804 -99.67597846952656, -369.63332894081776 -98.8841593598548" stroke="#000000" stroke-width="1" fill="none"></path></g><g transform="translate(559.277882337926 228.71428571428555) rotate(0 -184.3761927752596 -48.99288312722797)"><path d="M-346.5684408830441 -82.15169904100385 C-354.76986092336904 -89.16308142320209, -365.2509603639721 -95.50859927465169, -371.35399678824996 -99.2418227593947 M-345.7557884357832 -82.60541730931637 C-354.2881553890452 -89.25224494807023, -365.34130770254194 -95.6446427218226, -369.63332894081776 -98.8841593598548" stroke="#000000" stroke-width="1" fill="none"></path></g></g><g><g transform="translate(15.706453766497361 371.57142857142844) rotate(0 0.27494363091420837 -153.3107996166816)"><path d="M-0.6538510926067829 0.3539087779819965 C-0.6098261721432209 -50.79058409684469, 0.4176113002002239 -256.0420708921338, 0.33062196895480156 -306.97550801134525 M1.2037383544351905 -0.5058930589165538 C1.1128550693299621 -51.48437694482637, -0.42676163614727564 -254.6480813222817, -0.44384696097113197 -305.7252244660803" stroke="#000000" stroke-width="1" fill="none"></path></g><g transform="translate(15.706453766497361 371.57142857142844) rotate(0 0.27494363091420837 -153.3107996166816)"><path d="M10.53034397974262 -277.02875445730814 C5.8815694973966135 -288.1955559910591, 5.590067337636678 -296.43051252735063, 0.23784734918735917 -307.65917880555475 M10.033277390670273 -276.9300755685551 C8.485206114942873 -282.6087140018293, 5.899312970258313 -289.82105684669506, -0.7283667432609946 -305.77963538003945" stroke="#000000" stroke-width="1" fill="none"></path></g><g transform="translate(15.706453766497361 371.57142857142844) rotate(0 0.27494363091420837 -153.3107996166816)"><path d="M-9.990666619203894 -276.93860800000857 C-8.369382895271823 -288.02113878223105, -2.3909083943092337 -296.28363861033995, 0.23784734918735917 -307.65917880555475 M-10.487733208276241 -276.8399291112555 C-7.838371731152417 -282.44504109514014, -6.227636915061453 -289.6758192476358, -0.7283667432609946 -305.77963538003945" stroke="#000000" stroke-width="1" fill="none"></path></g></g><g><g transform="translate(14.99216805221181 370.85714285714266) rotate(0 305.18012138103325 2.637358902829874)"><path d="M0.6350767247378826 0.588579822331667 C102.2774708076247 1.3314500906992635, 509.15540320969035 3.7588111623767415, 610.8508894861807 4.514958866047072 M-0.4906467241141945 -0.14801971628330657 C100.91848296347604 0.6892251911781658, 508.2108710258253 4.37576381084692, 609.9745610027985 5.422737521943036" stroke="#000000" stroke-width="1" fill="none"></path></g><g transform="translate(14.99216805221181 370.85714285714266) rotate(0 305.18012138103325 2.637358902829874)"><path d="M582.6679264190317 15.640987648077186 C590.5186637856146 11.592961033476378, 602.3715644712446 8.086139625922408, 608.0379704914467 4.26216405805606 M581.012054876861 15.065775528930004 C592.9652857446896 12.300452188899934, 605.0059441968137 7.954343559086367, 610.8405389550553 5.044470909875217" stroke="#000000" stroke-width="1" fill="none"></path></g><g transform="translate(14.99216805221181 370.85714285714266) rotate(0 305.18012138103325 2.637358902829874)"><path d="M582.8641486327218 -4.879282799182864 C590.6495975077947 -1.0661096216942498, 602.4273365010416 3.287230294834612, 608.0379704914467 4.26216405805606 M581.2082770905512 -5.454494918330045 C592.9082014492495 -0.053543099837042085, 604.8707798967633 3.7656970399808705, 610.8405389550553 5.044470909875217" stroke="#000000" stroke-width="1" fill="none"></path></g></g></svg>